<svg width="350" height="68" viewBox="0 0 350 68" fill="none" xmlns="http://www.w3.org/2000/svg">
<g clip-path="url(#clip0_8630_16545)">
<path d="M92.9116 13.683C92.8213 13.552 92.711 13.4311 92.5707 13.3606L92.4604 13.3002L69.7714 0.131393C69.4806 -0.0398915 69.1297 -0.0398915 68.839 0.131393L46.4809 13.1087L24.3433 0.242224C24.3433 0.242224 24.2531 0.16162 24.1929 0.131393C23.9021 -0.0398915 23.5512 -0.0398915 23.2605 0.131393L0.461199 13.3606C0.170443 13.5218 0 13.8241 0 14.1667V40.5747C0 40.9072 0.180469 41.2196 0.461199 41.3908L46.0497 67.8896C46.1901 67.9702 46.3605 68.0206 46.5109 68.0206C46.6613 68.0206 46.8318 67.9702 46.9721 67.8997L69.7614 54.6704C69.7614 54.6704 69.8316 54.6201 69.8616 54.5999L92.5406 41.411C92.8314 41.2397 93.0018 40.9374 93.0018 40.6049V14.1465C93.0018 13.9752 92.9517 13.8241 92.8815 13.683H92.9116ZM1.85482 14.7007L22.7993 2.54953V26.8115L1.85482 38.9526V14.7007ZM46.521 65.9853L2.78725 40.5646L23.7217 28.4437L67.4454 53.8442L46.5109 65.9954L46.521 65.9853ZM89.8737 14.3782L69.3102 26.2876L48.3758 14.1566L69.3102 2.01552L90.2446 14.1667L89.8737 14.3782Z" fill="#0043FF"/>
<path d="M131.763 34.2573C131.642 34.086 131.492 33.9248 131.312 33.8241L131.161 33.7334C131.161 33.7334 131.261 33.7737 131.312 33.7939C131.502 33.9047 131.652 34.0659 131.763 34.2473V34.2573Z" fill="#0043FF"/>
<path d="M116.924 51.5762V16.4326H125.577V45.5913H134.47V51.5762H116.914H116.924Z" fill="#0043FF"/>
<path d="M146.942 51.8888C143.333 51.8888 140.686 51.0626 138.981 49.4203C137.277 47.778 136.425 45.3599 136.425 42.1659V16.4229H144.837V41.8838C144.837 42.4682 144.877 43.0324 144.957 43.5765C145.037 44.1105 145.228 44.5538 145.518 44.9065C145.809 45.2591 146.29 45.4203 146.942 45.4203C147.594 45.4203 148.095 45.2491 148.396 44.9166C148.687 44.574 148.877 44.1307 148.947 43.5866C149.018 43.0425 149.058 42.4783 149.058 41.8838V16.4229H157.47V42.1659C157.47 45.3599 156.617 47.778 154.913 49.4203C153.208 51.0626 150.552 51.8888 146.952 51.8888H146.942Z" fill="#0043FF"/>
<path d="M170.864 51.889C167.736 51.889 165.22 51.093 163.305 49.5112C161.4 47.9293 160.437 45.7127 160.437 42.8613V26.6497C160.437 23.2442 161.269 20.6346 162.934 18.821C164.598 17.0074 167.305 16.1006 171.055 16.1006C173.1 16.1006 174.925 16.4029 176.529 17.0175C178.123 17.6321 179.387 18.5489 180.299 19.758C181.221 20.9772 181.672 22.5086 181.672 24.3626V30.428H173.07V25.2391C173.07 24.1913 172.91 23.4759 172.579 23.1132C172.248 22.7505 171.747 22.5691 171.055 22.5691C170.253 22.5691 169.711 22.8008 169.431 23.2744C169.15 23.7479 169.01 24.3726 169.01 25.1585V42.7505C169.01 43.7177 169.18 44.4029 169.541 44.8059C169.892 45.2089 170.393 45.4003 171.055 45.4003C171.797 45.4003 172.308 45.1585 172.619 44.6648C172.93 44.1711 173.07 43.5364 173.07 42.7505V36.423H181.773V43.0729C181.773 46.1661 180.81 48.4029 178.895 49.7933C176.98 51.1837 174.293 51.8789 170.854 51.8789L170.864 51.889Z" fill="#0043FF"/>
<path d="M184.65 51.5762V16.4326H193.202V30.5082L197.233 16.4326H205.935L201.093 32.5233L206.948 51.5762H197.975L193.253 34.5686V51.5762H184.65Z" fill="#0043FF"/>
<path d="M208.031 51.5762V16.4326H216.393V51.5762H208.031Z" fill="#0043FF"/>
<path d="M219.832 51.5762V16.4326H237.137V23.2235H228.634V30.0749H236.796V36.6845H228.634V44.7349H237.708V51.5863H219.832V51.5762Z" fill="#0043FF"/>
<path d="M244.536 51.5768L239.202 16.4131H247.433L250.602 40.3325L253.429 16.4131H261.66L256.326 51.5768H244.526H244.536Z" fill="#0043FF"/>
<path d="M264.177 51.5762V16.4326H281.482V23.2235H272.98V30.0749H281.141V36.6845H272.98V44.7349H282.053V51.5863H264.177V51.5762Z" fill="#0043FF"/>
<path d="M284.901 51.5762V16.4326H298.175C300.391 16.4326 302.055 16.8457 303.188 17.6618C304.321 18.478 305.073 19.6266 305.464 21.0976C305.855 22.5686 306.046 24.2916 306.046 26.2764C306.046 28.2613 305.745 29.7223 305.154 30.8709C304.552 32.0195 303.429 32.8054 301.775 33.2487C303.138 33.4704 304.091 34.0246 304.642 34.8911C305.194 35.7676 305.464 36.8961 305.464 38.2764V51.5762H296.932V37.823C296.932 36.7953 296.671 36.1606 296.16 35.9188C295.649 35.677 294.807 35.546 293.664 35.546V51.5762H284.911H284.901ZM293.704 29.4502H295.789C296.982 29.4502 297.584 28.3923 297.584 26.2764C297.584 24.9062 297.454 24.0094 297.193 23.5762C296.932 23.153 296.441 22.9414 295.719 22.9414H293.704V29.4502Z" fill="#0043FF"/>
<path d="M319.17 51.889C315.22 51.889 312.372 51.093 310.628 49.491C308.883 47.889 308.011 45.35 308.011 41.8638V38.428H316.563V42.821C316.563 43.627 316.714 44.2719 317.014 44.7253C317.315 45.1787 317.847 45.4104 318.599 45.4104C319.35 45.4104 319.932 45.229 320.233 44.8563C320.534 44.4835 320.694 43.8688 320.694 43.0225C320.694 41.9444 320.564 41.0477 320.303 40.3122C320.042 39.5867 319.581 38.8915 318.939 38.2366C318.288 37.5817 317.395 36.8059 316.242 35.9293L312.362 32.9369C309.465 30.7102 308.011 28.1711 308.011 25.3097C308.011 22.4482 308.863 20.0301 310.578 18.4583C312.292 16.8865 314.769 16.1006 318.017 16.1006C321.987 16.1006 324.795 16.957 326.459 18.6799C328.123 20.3928 328.955 23.0023 328.955 26.5086H320.153V24.0905C320.153 23.6069 319.982 23.2442 319.651 22.9721C319.32 22.7102 318.859 22.5691 318.288 22.5691C317.596 22.5691 317.095 22.7303 316.774 23.0427C316.453 23.355 316.293 23.758 316.293 24.2517C316.293 24.7454 316.453 25.2794 316.784 25.8437C317.115 26.418 317.756 27.0729 318.729 27.8185L323.722 31.7076C324.724 32.4835 325.637 33.2996 326.479 34.156C327.311 35.0124 327.983 36.0099 328.494 37.1484C329.006 38.287 329.256 39.6774 329.256 41.3097C329.256 44.6144 328.504 47.1938 327.01 49.0678C325.506 50.9419 322.9 51.8688 319.18 51.8688L319.17 51.889Z" fill="#0043FF"/>
<path d="M332.124 51.5762V16.4326H349.429V23.2235H340.926V30.0749H349.088V36.6845H340.926V44.7349H350V51.5863H332.124V51.5762Z" fill="#0043FF"/>
</g>
<defs>
<clipPath id="clip0_8630_16545">
<rect width="350" height="68" fill="white"/>
</clipPath>
</defs>
</svg>
